<?xml version="1.0" encoding="UTF-8"?>
<svg width="29px" height="30px" viewBox="0 0 29 30" version="1.1" xmlns="http://www.w3.org/2000/svg" xmlns:xlink="http://www.w3.org/1999/xlink">
    <!-- Generator: Sketch 49.3 (51167) - http://www.bohemiancoding.com/sketch -->
    <title>Fill 1</title>
    <desc>Created with Sketch.</desc>
    <defs></defs>
    <g id="Page-1" stroke="none" stroke-width="1" fill="none" fill-rule="evenodd">
        <g id="Origa.ai--Website-V1-Copy-6" transform="translate(-254.000000, -4535.000000)" fill="#99B7CE">
            <g id="Group-20" transform="translate(-3.000000, 4259.000000)">
                <g id="Group-Copy" transform="translate(245.000000, 266.000000)">
                    <g id="Group-6" transform="translate(12.000000, 10.000000)">
                        <g id="Group-3">
                            <path d="M25.1458634,12.4524592 C25.7782977,11.9640342 26.2700528,11.5833131 26.8228104,11.1562543 C26.2538684,10.7204288 25.7509088,10.337203 25.1458634,9.87382543 L25.1458634,12.4524592 Z M2.08939874,11.1625161 C2.65958561,11.5970892 3.16379015,11.9815674 3.75389621,12.4311689 L3.75389621,9.88008729 C3.167525,10.3321935 2.69195429,10.6991385 2.08939874,11.1625161 Z M17.218025,4.02023909 C17.242924,3.95636812 17.267823,3.89374953 17.292722,3.83113093 C16.5146285,3.25003036 15.7552093,2.64137761 14.9447472,2.10911954 C14.728126,1.96634915 14.2786992,1.93378748 14.0732826,2.06528653 C13.2267169,2.61006831 12.4324391,3.23625427 11.4576437,3.95135863 C11.8000048,3.99268691 11.9132952,4.01773435 12.0265856,4.01773435 C13.7583104,4.02023909 15.4875452,4.02023909 17.218025,4.02023909 Z M18.3135806,19.7262353 C21.3226235,22.0130664 24.2482548,24.2372789 27.2373785,26.5078292 L27.2373785,12.8882846 C24.4100982,15.0473738 21.6898836,17.1263112 18.9696689,19.2065009 C18.7779467,19.3542808 18.5887144,19.5070702 18.3135806,19.7262353 Z M1.63001237,26.554167 C4.70005783,24.2184934 7.62942399,21.9892713 10.6210376,19.7124592 C7.61323965,17.4168615 4.67889369,15.1763681 1.63001237,12.8494611 L1.63001237,26.554167 Z M25.8243609,27.4658937 C22.7704997,25.1414915 19.8822169,22.9435787 16.9404013,20.7055901 C15.294578,22.3925351 13.6300806,22.3937875 11.9805225,20.7068425 C9.03870682,22.9448311 6.14917904,25.1427438 3.09656288,27.4658937 L25.8243609,27.4658937 Z M14.4629518,5.59572296 C11.8224139,5.59572296 9.18187601,5.59447059 6.54009318,5.59697533 C5.58272702,5.59697533 5.31879773,5.8436926 5.31381793,6.81428083 C5.30136843,8.90448956 5.29389874,10.9959507 5.32875732,13.0861594 C5.33373712,13.3754573 5.51798965,13.7574307 5.7458154,13.9327628 C8.37265884,15.9803909 11.0281361,17.9929526 13.667429,20.0242998 C14.2139619,20.4450968 14.7019821,20.4476015 15.2522497,20.0230474 C17.8902977,17.9891954 20.5470199,15.9791385 23.1751083,13.9340152 C23.4029341,13.7574307 23.5909215,13.377962 23.5959013,13.0899165 C23.6320048,10.9997078 23.6208003,8.90824668 23.6133306,6.81678558 C23.6095957,5.85496395 23.3406866,5.59697533 22.3870553,5.59697533 C19.7452725,5.59447059 17.1047346,5.59572296 14.4629518,5.59572296 Z M14.481626,29.1165199 C10.6197927,29.1165199 6.75671439,29.1190247 2.89612601,29.1152676 C0.955249747,29.1127628 0.0165578283,28.167222 0.0165578283,26.2348121 C0.0165578283,21.3655901 0.0277623737,16.4976205 0.000373484848,11.6296509 C-0.00336136364,10.9608843 0.208280051,10.5275636 0.737383586,10.1505996 C1.63250227,9.51063757 2.51268157,8.84437571 3.35177753,8.13177609 C3.59080783,7.93139658 3.73273207,7.54817078 3.79622449,7.22505882 C3.87590126,6.82054269 3.79248965,6.38722201 3.84726742,5.97644402 C3.97923207,4.98206072 4.893025,4.16300949 5.96617146,4.03276281 C6.06327753,4.02149146 6.16411843,4.006463 6.2587346,4.0239962 C8.12989369,4.36464137 9.60640379,3.62198482 10.9297851,2.36836053 C11.4601336,1.86615939 12.0838533,1.46164326 12.6714694,1.02331309 C13.9674619,0.0602390892 14.9721361,0.0602390892 16.2743533,1.03834156 C17.4097472,1.88995446 18.5140174,2.78540038 19.6705755,3.60820873 C19.9992422,3.84240228 20.4511588,3.95887287 20.8619922,4.00270588 C21.4657927,4.06908159 22.0832876,4.00771537 22.6933129,4.0239962 C24.1063306,4.06156736 25.1583129,5.0321556 25.0773912,6.44357875 C25.0163886,7.52562808 25.4197523,8.1493093 26.2663179,8.72039089 C27.1726412,9.33029602 28.285626,9.93644402 28.7350528,10.8343947 C29.1682952,11.7047932 28.8931614,12.943389 28.8956513,14.0204288 C28.9056109,18.1269564 28.9043659,22.2334839 28.9006311,26.3400114 C28.8993861,28.1359127 27.9357952,29.1102581 26.140578,29.1140152 C22.2550907,29.1215294 18.3683583,29.1152676 14.481626,29.1165199 Z" id="Fill-1"></path>
                        </g>
                    </g>
                </g>
            </g>
        </g>
    </g>
</svg>