<?xml version="1.0" encoding="UTF-8"?>
<svg width="19px" height="33px" viewBox="0 0 19 33" version="1.1" xmlns="http://www.w3.org/2000/svg" xmlns:xlink="http://www.w3.org/1999/xlink">
    <!-- Generator: Sketch 49.3 (51167) - http://www.bohemiancoding.com/sketch -->
    <title>Fill 1</title>
    <desc>Created with Sketch.</desc>
    <defs></defs>
    <g id="Page-1" stroke="none" stroke-width="1" fill="none" fill-rule="evenodd">
        <g id="Origa.ai--Website-V1-Copy-6" transform="translate(-259.000000, -4635.000000)" fill="#99B7CE">
            <g id="Group-20" transform="translate(-3.000000, 4259.000000)">
                <g id="Group-Copy-2" transform="translate(245.000000, 366.000000)">
                    <g id="Group-3" transform="translate(17.000000, 10.000000)">
                        <path d="M9.49248676,31.6211969 C10.3044515,31.6239628 10.8516748,31.073548 10.8544041,30.2534575 C10.8571334,29.4306011 10.3167333,28.8801862 9.50476858,28.8732715 C8.69689779,28.8663567 8.14148661,29.4236863 8.14285126,30.239628 C8.14421591,31.0666332 8.68188667,31.618431 9.49248676,31.6211969 Z M9.45700595,2.75069263 C10.5719222,2.75069263 11.6868385,2.74792672 12.8031195,2.75207558 C13.1879498,2.75484148 13.4663377,2.61239743 13.5550397,2.21134138 C13.6614822,1.71347868 13.3421549,1.37742137 12.7580861,1.37742137 C10.5842041,1.37465546 8.410322,1.37603842 6.23507529,1.37742137 C5.71105099,1.37880432 5.43812167,1.60699139 5.42856914,2.04262124 C5.42038126,2.49761242 5.70149847,2.74930967 6.23780459,2.75069263 C7.31041683,2.75345853 8.38439371,2.75069263 9.45700595,2.75069263 Z M17.6380624,15.8099076 L17.6380624,5.0726689 C17.6380624,4.3161942 17.4551998,4.12672979 16.7223845,4.12672979 C15.125748,4.12534684 13.5291114,4.12672979 11.9324749,4.12672979 C8.68325132,4.12672979 5.43402773,4.12534684 2.18616879,4.12811274 C1.57617175,4.12811274 1.37011011,4.34108734 1.35919294,4.94820323 C1.35782829,5.03394625 1.35782829,5.11968927 1.35782829,5.20543229 C1.35782829,12.3068904 1.35782829,19.4083485 1.35919294,26.5098066 C1.35919294,27.3354289 1.52431518,27.4972343 2.35947891,27.4972343 L16.6855391,27.4972343 C17.4579291,27.4972343 17.6380624,27.3188335 17.6380624,26.5471463 L17.6380624,15.8099076 Z M18.9958858,16.5013836 C18.9958858,20.9683183 18.9931565,25.435253 18.9999797,29.9021877 C19.0013444,30.5300479 18.9344767,31.131632 18.5960443,31.6723662 C18.0624675,32.5201157 17.2982654,32.9889364 16.307532,32.9917023 C11.7578001,33.0027659 7.20943298,33.0027659 2.66106581,32.9917023 C1.18178888,32.9889364 0.00273420279,31.7470456 0.00273420279,30.2188837 C-0.00135973705,23.8752832 0.00136955618,17.5330657 0.00136955618,11.1922312 C0.00136955618,8.45675225 0.00273420279,5.7226563 4.90956324e-06,2.98856036 C-0.00272438367,1.14093659 1.1326616,-0.00138169764 2.96401736,1.25428546e-06 C7.34453299,0.00276715813 11.723684,0.00276715813 16.102835,1.25428546e-06 C17.844124,-0.00138169764 18.9931565,1.15753201 18.9945211,2.92909342 L18.9945211,16.5013836 L18.9958858,16.5013836 Z" id="Fill-1"></path>
                    </g>
                </g>
            </g>
        </g>
    </g>
</svg>