<svg id="Layer_1" data-name="Layer 1" xmlns="http://www.w3.org/2000/svg" viewBox="0 0 134.37 77.96"><defs><style>.cls-1{fill:#1c395d;}</style></defs><title>Icons</title><g id="fljDB0.tif"><path class="cls-1" d="M1.94,78C1.31,77.23.35,76.6.11,75.75c-.54-1.85,1-3.24,3.43-3.26,3.45,0,6.89,0,10.34,0h1.23a30.75,30.75,0,0,1-.39-3.41q0-32.94,0-65.89c0-2.68.5-3.19,3.14-3.19h98.37c2.44,0,3,.52,3,2.92q0,33.41,0,66.82a18.31,18.31,0,0,1-.43,2.75h9.79c.75,0,1.5,0,2.25,0,1.88,0,3.14.79,3.47,2.09s-.15,2.31-1.85,3.37ZM18.85,4.09V68.55h96.22V4.09ZM67.17,75.81c2.16,0,4.33,0,6.49,0,.73,0,1.47-.17,1.36-1,0-.37-.83-.91-1.28-.91q-6.57-.11-13.12,0a1.66,1.66,0,0,0-1.3.9c-.12.84.62,1,1.35,1C62.84,75.8,65,75.81,67.17,75.81Z"/></g><g id="EBzmah.tif"><path class="cls-1" d="M65.22,12.86H52.31a.76.76,0,0,0-.59.25q-3.07,3.1-6.18,6.19a.52.52,0,0,0-.14.63,2.35,2.35,0,0,1-3.09,2.9A2.21,2.21,0,0,1,40.8,20.9a2.35,2.35,0,0,1,3.11-2.52.45.45,0,0,0,.53-.13L51,11.68a1.19,1.19,0,0,1,.89-.36H78.58a1.19,1.19,0,0,1,.91.37q5.9,5.91,11.82,11.81a1.18,1.18,0,0,1,.36.88c0,2.59,0,5.17,0,7.76a1.13,1.13,0,0,1-.36.88c-.43.4-.83.83-1.25,1.23a.32.32,0,0,0-.08.39,2.37,2.37,0,0,1-2.14,3.21,2.37,2.37,0,1,1,.75-4.59.31.31,0,0,0,.4-.09c.33-.34.67-.66,1-1a.67.67,0,0,0,.16-.41c0-2.33,0-4.66,0-7a.75.75,0,0,0-.21-.47c-2.84-2.86-5.69-5.7-8.54-8.55L78.7,13.06a.65.65,0,0,0-.52-.2Z"/><path class="cls-1" d="M38.89,31.3c0-.93,0-1.85,0-2.78a.52.52,0,0,0-.32-.54,2.32,2.32,0,0,1-1.27-2.4,2.37,2.37,0,0,1,4.59-.46A2.35,2.35,0,0,1,40.71,28a.43.43,0,0,0-.29.46c0,1.75,0,3.49,0,5.24a.66.66,0,0,0,.21.51q2.91,2.89,5.8,5.8a.73.73,0,0,0,.54.22c2.88,0,5.75,0,8.63,0a.48.48,0,0,0,.49-.31A2.33,2.33,0,0,1,59,38.74a2.39,2.39,0,0,1,1.6,2.6,2.36,2.36,0,0,1-2.4,2,2.25,2.25,0,0,1-2-1.29.53.53,0,0,0-.56-.33c-3,0-6,0-8.95,0a1.31,1.31,0,0,1-1-.42Q42.45,38.17,39.29,35a1.26,1.26,0,0,1-.4-1C38.9,33.13,38.89,32.22,38.89,31.3Z"/><path class="cls-1" d="M76.2,55.86c0,1.06,0,2.13,0,3.19a.46.46,0,0,0,.31.51,2.38,2.38,0,1,1-2.14,0A.54.54,0,0,0,74.7,59c0-2.29,0-4.59,0-6.88a1.09,1.09,0,0,1,.36-.85c1.08-1.07,2.16-2.15,3.22-3.23a1.09,1.09,0,0,1,.83-.35h4a.7.7,0,0,0,.54-.22c1-1,2-2,3-3,.34-.35.31-.59-.11-.8a2.38,2.38,0,1,1,2.11,0,.37.37,0,0,0-.26.42,1.45,1.45,0,0,1-.55,1.33c-1.13,1.09-2.23,2.21-3.33,3.33a1.21,1.21,0,0,1-1,.39c-1.31,0-2.61,0-3.92,0a.72.72,0,0,0-.54.22q-1.29,1.32-2.61,2.61a.74.74,0,0,0-.24.59C76.21,53.71,76.2,54.79,76.2,55.86Z"/><path class="cls-1" d="M70.65,17.19H64.94a.43.43,0,0,0-.46.29,2.37,2.37,0,1,1,0-2.11.45.45,0,0,0,.49.29H76.7a1.27,1.27,0,0,1,1,.39c1.54,1.56,3.09,3.09,4.63,4.64a.48.48,0,0,0,.58.15,2.36,2.36,0,1,1,1.29,4.53,2.26,2.26,0,0,1-2.29-.7,2.23,2.23,0,0,1-.5-2.33.46.46,0,0,0-.14-.56l-4.35-4.34a.72.72,0,0,0-.58-.24Z"/><path class="cls-1" d="M54.38,36.81c-1.37,0-2.73,0-4.1,0a1.06,1.06,0,0,1-.85-.36C48.3,35.31,47.15,34.18,46,33a.43.43,0,0,0-.5-.12,2.36,2.36,0,1,1-.83-4.6A2.35,2.35,0,0,1,47,31.39a.5.5,0,0,0,.14.61q1.53,1.52,3,3a.76.76,0,0,0,.59.25H58a.7.7,0,0,0,.54-.22c1-1,2-2,3-3a.43.43,0,0,0,.11-.51,2.36,2.36,0,1,1,4.6-.81,2.35,2.35,0,0,1-3.09,2.29.49.49,0,0,0-.59.13c-1.07,1.1-2.16,2.17-3.24,3.26a1.06,1.06,0,0,1-.85.35C57.09,36.8,55.74,36.81,54.38,36.81Z"/><path class="cls-1" d="M74.41,25.66c0-.57,0-1.15,0-1.73a.45.45,0,0,0-.3-.48A2.29,2.29,0,0,1,72.83,21a2.37,2.37,0,0,1,4.56-.4,2.32,2.32,0,0,1-1.16,2.89.51.51,0,0,0-.32.54c0,1.27,0,2.54,0,3.8a1.24,1.24,0,0,1-.39.94c-2.49,2.47-5,5-7.45,7.43a.5.5,0,0,0-.14.59,2.37,2.37,0,1,1-2.63-1.59,3,3,0,0,1,1.15.09A.47.47,0,0,0,67,35.1l6.49-6.5c.31-.3.72-.57.87-.94a3.73,3.73,0,0,0,.05-1.3C74.41,26.13,74.41,25.89,74.41,25.66Z"/><path class="cls-1" d="M64.39,23.36h2a.45.45,0,0,0,.47-.29,2.37,2.37,0,1,1,0,2.09.47.47,0,0,0-.52-.3c-1.43,0-2.86,0-4.3,0a1.25,1.25,0,0,1-.93-.39c-1.81-1.83-3.64-3.64-5.46-5.47a.44.44,0,0,0-.53-.13A2.33,2.33,0,0,1,52,17.24a2.37,2.37,0,1,1,4.53.18.43.43,0,0,0,.12.53l5.23,5.2a.77.77,0,0,0,.51.2C63.08,23.38,63.73,23.36,64.39,23.36Z"/><path class="cls-1" d="M88.31,28.78a2.35,2.35,0,0,1-4.46,1.06.5.5,0,0,0-.51-.33c-.86,0-1.72,0-2.58,0a.74.74,0,0,0-.48.2l-5.93,5.9a.4.4,0,0,0-.11.46,2.36,2.36,0,1,1-4.54,1.25,2.36,2.36,0,0,1,3.07-2.69.46.46,0,0,0,.56-.14c2-2,4.1-4.09,6.14-6.14a1.1,1.1,0,0,1,.88-.37h3a.43.43,0,0,0,.46-.28,2.36,2.36,0,0,1,4.48,1.05Z"/><path class="cls-1" d="M70.62,59.35a2.39,2.39,0,0,1-2.29-1.8,2.33,2.33,0,0,1,1.24-2.67.5.5,0,0,0,.32-.54c0-.92,0-1.83,0-2.75a.86.86,0,0,0-.2-.48l-5.37-5.39a.41.41,0,0,0-.51-.1,2.37,2.37,0,1,1-1.35-4.53,2.28,2.28,0,0,1,2.32.68,2.24,2.24,0,0,1,.5,2.36.46.46,0,0,0,.14.56L71,50.28a1.2,1.2,0,0,1,.38.91c0,1.08,0,2.16,0,3.24a.39.39,0,0,0,.24.41A2.34,2.34,0,0,1,73,57.42a2.38,2.38,0,0,1-2,1.9Z"/><path class="cls-1" d="M72.41,43.85c-.43,0-.86,0-1.29,0a.47.47,0,0,0-.51.31,2.36,2.36,0,1,1,0-2.13.48.48,0,0,0,.53.32c.68,0,1.37,0,2.05,0a.66.66,0,0,0,.54-.22l3.7-3.71a1,1,0,0,1,.83-.34c.72,0,1.44,0,2.16,0a.43.43,0,0,0,.45-.28,2.34,2.34,0,0,1,2.48-1.31,2.37,2.37,0,0,1,.48,4.56,2.33,2.33,0,0,1-2.92-1.12.55.55,0,0,0-.61-.35c-.51,0-1,0-1.55,0a.73.73,0,0,0-.57.23C77,41,75.74,42.24,74.54,43.46a1.17,1.17,0,0,1-1,.39C73.19,43.83,72.8,43.85,72.41,43.85Z"/><path class="cls-1" d="M52.31,20.67a8,8,0,0,1-.18.82.34.34,0,0,0,.11.43l2.94,2.93a1.1,1.1,0,0,1,.37.88c0,.85,0,1.7,0,2.55a.4.4,0,0,0,.27.42,2.37,2.37,0,1,1-2.06,0,.43.43,0,0,0,.29-.47c0-.71,0-1.42,0-2.13a.69.69,0,0,0-.17-.41c-.89-.91-1.79-1.8-2.68-2.7a.4.4,0,0,0-.46-.12A2.33,2.33,0,0,1,47.57,21a2.37,2.37,0,0,1,1.82-2.61A2.4,2.4,0,0,1,52.31,20.67Z"/></g></svg>