<svg xmlns="http://www.w3.org/2000/svg" viewBox="0 0 106.23 102.98"><defs><style>.cls-1{fill:#99b7ce;}</style></defs><title>Icons</title><g id="text"><g id="EBzmah.tif"><path class="cls-1" d="M54.56,3H29.35a1.47,1.47,0,0,0-1.15.47q-6,6.07-12.08,12.09a1,1,0,0,0-.28,1.23,4.36,4.36,0,0,1-1.21,4.71,4.39,4.39,0,0,1-4.82,1,4.28,4.28,0,0,1-2.94-3.74,4.58,4.58,0,0,1,6.06-4.93.84.84,0,0,0,1-.25Q20.35,7.12,26.76.71A2.23,2.23,0,0,1,28.48,0H80.66a2.33,2.33,0,0,1,1.78.72Q94,12.27,105.52,23.79a2.26,2.26,0,0,1,.71,1.72q0,7.57,0,15.15a2.15,2.15,0,0,1-.71,1.72c-.83.79-1.61,1.62-2.43,2.42a.61.61,0,0,0-.17.75,4.62,4.62,0,0,1-4.18,6.27,4.63,4.63,0,0,1-1.06-9.17,4.45,4.45,0,0,1,2.53.21.62.62,0,0,0,.79-.18c.63-.66,1.31-1.28,1.93-2a1.29,1.29,0,0,0,.32-.79q0-6.82,0-13.66a1.47,1.47,0,0,0-.41-.92Q94.51,17,86.14,8.65C84.39,6.9,82.63,5.16,80.89,3.4a1.29,1.29,0,0,0-1-.4Z"/><path class="cls-1" d="M3.13,39c0-1.81,0-3.63,0-5.44a1,1,0,0,0-.62-1A4.56,4.56,0,0,1,0,27.86a4.67,4.67,0,0,1,3.65-3.93A4.62,4.62,0,0,1,9,27,4.58,4.58,0,0,1,6.69,32.6a.84.84,0,0,0-.57.9q0,5.11,0,10.23a1.29,1.29,0,0,0,.42,1L17.86,56.05a1.35,1.35,0,0,0,1.05.43H35.78a.88.88,0,0,0,.94-.6,4.58,4.58,0,0,1,5.6-2.32,4.62,4.62,0,0,1-1.57,9,4.39,4.39,0,0,1-4-2.52,1,1,0,0,0-1.09-.64c-5.83,0-11.67,0-17.5,0a2.54,2.54,0,0,1-2-.81Q10.08,52.46,3.91,46.33a2.49,2.49,0,0,1-.78-1.93C3.15,42.61,3.13,40.82,3.13,39Z"/><path class="cls-1" d="M76,87c0,2.08,0,4.15,0,6.23a.94.94,0,0,0,.62,1,4.63,4.63,0,1,1-4.19,0,1,1,0,0,0,.65-1.09c0-4.48,0-9,0-13.43a2.2,2.2,0,0,1,.7-1.67c2.11-2.08,4.22-4.19,6.3-6.3a2.08,2.08,0,0,1,1.62-.68c2.61,0,5.22,0,7.83,0a1.31,1.31,0,0,0,1-.43c1.92-1.94,3.85-3.86,5.78-5.79.67-.67.61-1.13-.22-1.56a4.65,4.65,0,1,1,4.14,0c-.39.19-.57.4-.51.82a2.88,2.88,0,0,1-1.08,2.61c-2.21,2.12-4.36,4.31-6.51,6.5a2.4,2.4,0,0,1-1.87.76c-2.55,0-5.1,0-7.66,0a1.35,1.35,0,0,0-1,.44Q79,77,76.48,79.56A1.52,1.52,0,0,0,76,80.72C76,82.81,76,84.91,76,87Z"/><path class="cls-1" d="M65.17,11.47c-3.72,0-7.43,0-11.15,0a.87.87,0,0,0-.91.56,4.57,4.57,0,0,1-5.32,2.42,4.64,4.64,0,0,1,.33-9,4.57,4.57,0,0,1,5,2.49.9.9,0,0,0,1,.58c7.64,0,15.28,0,22.92,0a2.43,2.43,0,0,1,1.88.77c3,3,6,6,9,9.06a.93.93,0,0,0,1.13.28,4.61,4.61,0,1,1,2.52,8.85,4.59,4.59,0,0,1-5.45-5.92.91.91,0,0,0-.27-1.09q-4.26-4.21-8.49-8.48a1.47,1.47,0,0,0-1.15-.47C72.52,11.48,68.84,11.47,65.17,11.47Z"/><path class="cls-1" d="M33.39,49.79c-2.67,0-5.34,0-8,0a2.2,2.2,0,0,1-1.67-.7c-2.21-2.24-4.45-4.45-6.66-6.68a.81.81,0,0,0-1-.25A4.39,4.39,0,0,1,11.17,41,4.35,4.35,0,0,1,10.32,36a4.41,4.41,0,0,1,4.14-2.83,4.59,4.59,0,0,1,4.49,6,1,1,0,0,0,.29,1.19c2,2,4,4,5.93,6a1.46,1.46,0,0,0,1.14.5q7.07,0,14.12,0a1.34,1.34,0,0,0,1.06-.43q2.9-2.92,5.82-5.82a.83.83,0,0,0,.23-1,4.61,4.61,0,1,1,9-1.58,4.59,4.59,0,0,1-6,4.46.94.94,0,0,0-1.14.27C47.24,44.88,45.11,47,43,49.11a2.21,2.21,0,0,1-1.68.69C38.69,49.77,36,49.79,33.39,49.79Z"/><path class="cls-1" d="M72.51,28c0-1.12,0-2.25,0-3.37a.89.89,0,0,0-.6-.95,4.52,4.52,0,0,1-2.5-4.88A4.63,4.63,0,0,1,78.34,18a4.54,4.54,0,0,1-2.27,5.66,1,1,0,0,0-.63,1.05c0,2.48,0,4.95,0,7.43A2.32,2.32,0,0,1,74.71,34c-4.86,4.83-9.7,9.69-14.57,14.53a1,1,0,0,0-.27,1.14,4.61,4.61,0,1,1-5.12-3.11,6.29,6.29,0,0,1,2.24.18.91.91,0,0,0,1-.27q6.33-6.36,12.68-12.7c.6-.59,1.4-1.11,1.69-1.83a7.35,7.35,0,0,0,.11-2.54C72.51,28.93,72.51,28.47,72.51,28Z"/><path class="cls-1" d="M52.94,23.52c1.27,0,2.55,0,3.82,0a.85.85,0,0,0,.92-.56,4.63,4.63,0,1,1,0,4.09.93.93,0,0,0-1-.6c-2.8,0-5.6,0-8.4,0a2.32,2.32,0,0,1-1.81-.76C42.94,22.15,39.37,18.61,35.82,15a.87.87,0,0,0-1-.25,4.58,4.58,0,0,1-6-3.23,4.62,4.62,0,1,1,8.85.35.87.87,0,0,0,.24,1c3.41,3.38,6.8,6.78,10.21,10.15a1.59,1.59,0,0,0,1,.4C50.38,23.55,51.66,23.52,52.94,23.52Z"/><path class="cls-1" d="M99.67,34.1A4.61,4.61,0,0,1,91,36.17a1,1,0,0,0-1-.63c-1.68,0-3.36,0-5,0A1.47,1.47,0,0,0,84,36c-3.88,3.83-7.72,7.69-11.59,11.53a.74.74,0,0,0-.21.89,4.61,4.61,0,1,1-8.87,2.44,4.6,4.6,0,0,1,6-5.24.91.91,0,0,0,1.08-.28c4-4,8-8,12-12a2.24,2.24,0,0,1,1.72-.72c2,0,3.93,0,5.89,0a.85.85,0,0,0,.91-.55,4.6,4.6,0,0,1,8.75,2.05Z"/><path class="cls-1" d="M65.11,93.82a4.63,4.63,0,0,1-4.46-3.52,4.56,4.56,0,0,1,2.41-5.22,1,1,0,0,0,.63-1c0-1.79,0-3.58,0-5.37a1.55,1.55,0,0,0-.39-.94c-3.48-3.52-7-7-10.48-10.52a.83.83,0,0,0-1-.21,4.62,4.62,0,1,1-2.64-8.84,4.61,4.61,0,0,1,5.52,5.94.89.89,0,0,0,.26,1.08c3.66,3.64,7.3,7.3,11,10.93a2.28,2.28,0,0,1,.73,1.77c0,2.12,0,4.23,0,6.34a.75.75,0,0,0,.48.79,4.6,4.6,0,0,1,2.61,5,4.65,4.65,0,0,1-3.85,3.73C65.6,93.81,65.35,93.8,65.11,93.82Z"/><path class="cls-1" d="M68.61,63.54c-.84,0-1.68,0-2.51,0a.92.92,0,0,0-1,.6,4.62,4.62,0,1,1,0-4.17,1,1,0,0,0,1,.64c1.34,0,2.67,0,4,0a1.33,1.33,0,0,0,1.06-.43c2.4-2.43,4.82-4.83,7.22-7.25A2.11,2.11,0,0,1,80,52.24c1.41,0,2.82,0,4.23,0a.81.81,0,0,0,.87-.54A4.54,4.54,0,0,1,90,49.17a4.62,4.62,0,0,1,.93,8.9,4.56,4.56,0,0,1-5.7-2.18A1.06,1.06,0,0,0,84,55.2c-1,0-2,0-3,0a1.38,1.38,0,0,0-1.11.46c-2.36,2.38-4.75,4.73-7.1,7.12a2.28,2.28,0,0,1-1.87.77C70.14,63.5,69.37,63.54,68.61,63.54Z"/><path class="cls-1" d="M29.34,18.26a13.76,13.76,0,0,1-.35,1.6.7.7,0,0,0,.21.85c1.93,1.9,3.83,3.83,5.76,5.72a2.16,2.16,0,0,1,.71,1.72c0,1.66,0,3.32,0,5a.78.78,0,0,0,.52.83,4.62,4.62,0,1,1-4,0,.86.86,0,0,0,.56-.92c0-1.39,0-2.78,0-4.17a1.27,1.27,0,0,0-.32-.79c-1.74-1.77-3.5-3.51-5.24-5.27a.77.77,0,0,0-.9-.23,4.57,4.57,0,0,1-6.15-3.75,4.64,4.64,0,1,1,9.25-.58Z"/></g></g></svg>