<svg xmlns="http://www.w3.org/2000/svg" xmlns:xlink="http://www.w3.org/1999/xlink" viewBox="0 0 74.68 84.01"><defs><style>.cls-1{fill:none;}.cls-2{isolation:isolate;}.cls-3{opacity:0.38;mix-blend-mode:screen;}.cls-4{clip-path:url(#clip-path);}.cls-5{opacity:0.3;}.cls-6{mix-blend-mode:color-dodge;}.cls-7{opacity:0.4;mix-blend-mode:multiply;fill:url(#Degradado_sin_nombre_18);}.cls-8{fill:#99b7ce;}</style><clipPath id="clip-path"><rect class="cls-1" x="-511.6" y="288.87" width="1440" height="1024"/></clipPath><radialGradient id="Degradado_sin_nombre_18" cx="-2317.64" cy="-396.11" r="209" gradientTransform="matrix(-0.13, 0.93, -1.02, -0.12, -922.61, 2385.31)" gradientUnits="userSpaceOnUse"><stop offset="0" stop-color="#133896"/><stop offset="0.08" stop-color="#133896" stop-opacity="0.9"/><stop offset="0.39" stop-color="#133896" stop-opacity="0.51"/><stop offset="0.66" stop-color="#133896" stop-opacity="0.24"/><stop offset="0.87" stop-color="#133896" stop-opacity="0.06"/><stop offset="1" stop-color="#133896" stop-opacity="0"/></radialGradient></defs><title>Icons</title><g class="cls-2"><g id="Layer_1" data-name="Layer 1"><g class="cls-3"><g class="cls-4"><ellipse class="cls-7" cx="-209.04" cy="274.3" rx="215.6" ry="196.33"/></g></g></g><g id="text"><g id="hcjnNW.tif"><path class="cls-8" d="M32.87,0h8.85A1.92,1.92,0,0,0,42,.17c2.24.92,3,4.45,1.2,6.1a10.89,10.89,0,0,1-2.49,1.28v2a37.35,37.35,0,0,1,21.85,9.7l2.23-2.29s0-.1-.08-.17a2,2,0,0,1,.56-3,1.91,1.91,0,0,1,2.84.27c.9.87,1.79,1.77,2.66,2.66a1.94,1.94,0,0,1,.58,2.37,2.47,2.47,0,0,1-2.44,1.44,1,1,0,0,0-.66.14c-.76.7-1.49,1.44-2.25,2.17l.74,1a36.75,36.75,0,0,1,7.51,17.72c.23,1.68.31,3.37.45,5v.49c0,.32-.09.64-.12,1-.18,1.68-.23,3.38-.54,5-2.3,12.18-9,21.15-19.95,26.87A35.1,35.1,0,0,1,30.6,83.31C18.57,81,9.71,74.29,4,63.47A35.65,35.65,0,0,1,.2,43,37.26,37.26,0,0,1,15.14,16.65a35.7,35.7,0,0,1,13-6.14c1.87-.45,3.78-.74,5.66-1.11V7.25C31.53,7,30.53,5.9,30.47,3.66A3.47,3.47,0,0,1,32.87,0Zm4.52,14.3A32.35,32.35,0,1,0,69.62,46.75,32.34,32.34,0,0,0,37.39,14.3Z"/><path class="cls-8" d="M36.27,16.59C52,16.26,66.15,29.63,66,46.26H64.1c-.06-.34-.09-.69-.17-1A4.19,4.19,0,0,0,59.58,42Q52,42,44.41,42a1.26,1.26,0,0,1-1.19-.62,8.21,8.21,0,0,0-5.76-3.53l-1.19-.14Z"/><path class="cls-8" d="M51.16,47.39c-2.76,0-5.52,0-8.28,0a1,1,0,0,0-1.07.69,5.89,5.89,0,0,1-6.66,3.41,5.92,5.92,0,0,1,.13-11.59,5.86,5.86,0,0,1,6.48,3.33A1.13,1.13,0,0,0,43,44c5.39,0,10.77,0,16.15,0a5.29,5.29,0,0,1,1.06.09,1.58,1.58,0,0,1,1.35,1.61,1.6,1.6,0,0,1-1.33,1.63,3.86,3.86,0,0,1-.9.07Z"/></g></g></g></svg>