<svg xmlns="http://www.w3.org/2000/svg" xmlns:xlink="http://www.w3.org/1999/xlink" viewBox="0 0 75.99 76"><defs><style>.cls-1{fill:none;}.cls-2{isolation:isolate;}.cls-3{opacity:0.38;mix-blend-mode:screen;}.cls-4{clip-path:url(#clip-path);}.cls-5{opacity:0.3;}.cls-6{mix-blend-mode:color-dodge;}.cls-7{opacity:0.4;mix-blend-mode:multiply;fill:url(#Degradado_sin_nombre_18);}.cls-8{fill:#99b7ce;}</style><clipPath id="clip-path"><rect class="cls-1" x="-378.71" y="285.2" width="1440" height="1024"/></clipPath><radialGradient id="Degradado_sin_nombre_18" cx="-2184.75" cy="-399.79" r="209" gradientTransform="matrix(-0.13, 0.93, -1.02, -0.12, -775.8, 2257.4)" gradientUnits="userSpaceOnUse"><stop offset="0" stop-color="#133896"/><stop offset="0.08" stop-color="#133896" stop-opacity="0.9"/><stop offset="0.39" stop-color="#133896" stop-opacity="0.51"/><stop offset="0.66" stop-color="#133896" stop-opacity="0.24"/><stop offset="0.87" stop-color="#133896" stop-opacity="0.06"/><stop offset="1" stop-color="#133896" stop-opacity="0"/></radialGradient></defs><title>Icons</title><g class="cls-2"><g id="Layer_1" data-name="Layer 1"><g class="cls-3"><g class="cls-4"><ellipse class="cls-7" cx="-76.16" cy="270.63" rx="215.6" ry="196.33"/></g></g></g><g id="text"><g id="s2XkRL.tif"><path class="cls-8" d="M76,49.25c-1.93,1.67-2.15,1.58-4.63-1.9-.28,1.14-.5,2.16-.77,3.16C66.88,63.88,58.91,72.92,44.87,75.78a1.17,1.17,0,0,0-.37.22H39.75c-.27-.82-.89-1.74-.7-2.43.14-.52,1.31-1,2.05-1.08,13.61-.55,23.53-11.17,26.18-23.75a6.63,6.63,0,0,0,.1-2.73,9.44,9.44,0,0,1-1.83,2.2c-.76.49-2,1-2.69.66-1.3-.65-.91-1.9-.12-2.93,1.8-2.32,3.57-4.68,5.43-6.95,1.28-1.56,2.56-1.41,3.53.38,1.47,2.7,2.86,5.44,4.29,8.16Z"/><path class="cls-8" d="M31.8,19.12c.31-5.32.31-5.32,5.6-5.32,1.29,0,2.58,0,3.88,0,2.43,0,2.81.43,2.85,2.94,0,1.29-.39,2.65,1.59,3.15a2.33,2.33,0,0,0,2.57-.8c2.59-2.58,2.69-2.57,5.31,0C55,20.57,56.43,22,57.87,23.42a2.13,2.13,0,0,1,.2,3.21c-3.26,4.53-3.18,4.58,2.19,5.38a2.93,2.93,0,0,1,1.88,2c.23,2.63.1,5.31.08,8a1.91,1.91,0,0,1-2.13,2.14H56.94c-1.35,1.87-1.23,3.32.54,4.84s1.75,2.23,0,4c-1.51,1.53-3.1,3-4.55,4.59s-2.72,1.6-3.93,0c-1.39-1.88-2.92-1.91-4.72-.69a1.49,1.49,0,0,0-.09.39c.14,5.75-.45,4.95-5.37,5H35.56c-3.56,0-3.74-.09-3.63-3.62.05-1.52-.45-2.41-1.88-2.43a3.83,3.83,0,0,0-2.46.89c-2.5,2.29-2.64,2.34-5,0-1.37-1.37-2.69-2.8-4.12-4.1s-1.65-2.72,0-3.93c1.89-1.39,1.95-2.92.73-4.74a1.32,1.32,0,0,0-.38-.1c-5.18-.06-5.06.42-5-5.33,0-1.43.06-2.87,0-4.31-.09-2,.81-2.76,2.72-2.64.93.06,1.86,0,2.65,0,1.26-1.53,1-2.7-.19-4.06-2.44-2.84-2.36-2.91.31-5.59,1.27-1.27,2.59-2.49,3.8-3.82,1.36-1.49,2.72-1.68,3.93,0C28.37,20.36,29.91,20.37,31.8,19.12Zm18.93,35,3.79-3.29c-3.36-1.8-2.3-4-1.78-6.74.71-3.7,3.07-3.7,5.68-3.6V35.41c-3.21.73-4.51-.6-5.89-3.42-1.61-3.3.61-4.72,1.81-6.67L50.7,21.59C49.1,25,46.76,23.75,44,23.25c-3.74-.69-3.65-3.11-3.58-5.72H35.38c.72,3.17-.21,4.81-3.56,5.79-2.91.85-5,.95-6.41-1.18l-4,3.09c1.79,2.13,3.3,3.66,2,6.91s-3,3.69-5.87,3.39V40.7c3.22-.8,4.76.25,5.8,3.53.93,3,.81,5-1.33,6.47l3.36,3.7c1.56-3.29,3.85-2.15,6.53-1.63,3.62.7,3.92,2.88,3.64,5.75h5.19c-1.84-5.52,2.72-5.09,5.55-6.42C48.67,51,49.3,53.34,50.73,54.11Z"/><path class="cls-8" d="M8.67,29.89a9.58,9.58,0,0,1,1.91-2.21,7.62,7.62,0,0,1,2.6-.59c.1.89.62,2.06.24,2.62-1.78,2.6-3.76,5.08-5.77,7.51-1.19,1.43-2.44,1.2-3.37-.55C2.94,34.14,1.71,31.54.41,29c-.59-1.17-.68-2.29.66-2.92s2,.15,2.57,1.24c.24.5.54,1,.72,1.31,1.15-3.33,2-6.82,3.5-10C12.69,8.54,20.41,2,31.69.22c1-.15,2-.15,3-.21C36-.06,37.11.22,37.17,1.72s-1,1.86-2.31,1.91A25,25,0,0,0,21.51,7.91C13.82,13.16,9.78,20.63,8.67,29.89Z"/><path class="cls-8" d="M38,27.61A10.43,10.43,0,1,1,27.59,38,10.47,10.47,0,0,1,38,27.61ZM44.8,38a6.8,6.8,0,1,0-6.71,6.81A6.9,6.9,0,0,0,44.8,38Z"/></g></g></g></svg>