<svg id="Layer_1" data-name="Layer 1" xmlns="http://www.w3.org/2000/svg" viewBox="0 0 67.23 67.22"><defs><style>.cls-1{fill:#fff;}</style></defs><title>Icons</title><g id="Yc4plZ.tif"><path class="cls-1" d="M31.53,0c.31,0,.62,0,.94,0A31.34,31.34,0,0,1,52.1,7.74a31.46,31.46,0,0,1,6.48,7.78,31.31,31.31,0,0,1,4.3,17.65,30.61,30.61,0,0,1-1.53,8.1l-.07.2L61,41.24l-1.92-1.8a.26.26,0,0,1-.09-.31,29.13,29.13,0,0,0,1-5.57c0-.2,0-.4,0-.65h-7.6a.6.6,0,0,1-.46-.18L48.7,29.67a.41.41,0,0,1-.13-.29A45,45,0,0,0,48,23.7a40.68,40.68,0,0,0-1.59-6.35c-.06-.19-.18-.17-.31-.17H32.92V30H40v2.87H32.93V45.76H40v2.88H32.93V60A13.13,13.13,0,0,0,40,56.23a2.54,2.54,0,0,1,0,.26c0,1.66,0,3.33,0,5a.28.28,0,0,1-.25.32,31.49,31.49,0,0,1-5.63,1,31.29,31.29,0,0,1-23.13-7.43,31.38,31.38,0,0,1-6.8-8.16,31,31,0,0,1-3.49-9A31.43,31.43,0,0,1,0,31.84a3,3,0,0,0,0-.31v-.09l.09-1.89A29.16,29.16,0,0,1,1,23.61,31.55,31.55,0,0,1,17.24,3.43,30.89,30.89,0,0,1,30.5,0l.94,0ZM30,17.18H16.89a.27.27,0,0,0-.31.21,41.3,41.3,0,0,0-1.36,5.05,47.18,47.18,0,0,0-.85,7.31V30H30ZM14.37,32.92v.25a50.68,50.68,0,0,0,.48,5.21,41.61,41.61,0,0,0,1.72,7.15c.06.18.13.25.33.25H30V32.92ZM51.45,30h8.64c-.15-1.19-.27-2.36-.46-3.52a28,28,0,0,0-3.28-9.15.3.3,0,0,0-.31-.18H49.29A46.43,46.43,0,0,1,51.45,30ZM2.9,30h8.61a50.18,50.18,0,0,1,.6-6.49,43.76,43.76,0,0,1,1.52-6.35l-.2,0H6.9a.28.28,0,0,0-.27.17A28.3,28.3,0,0,0,3.07,28.18C3,28.79,3,29.4,2.9,30ZM13.63,45.77a46.51,46.51,0,0,1-2.12-12.84H2.93a2.8,2.8,0,0,0,0,.29c.13,1.1.22,2.2.41,3.28A28,28,0,0,0,6.6,45.56a.36.36,0,0,0,.37.22h6.66ZM45.18,14.31c-.27-.54-.51-1.06-.77-1.56a22.34,22.34,0,0,0-4.92-6.53,12.88,12.88,0,0,0-5.46-3c-.36-.09-.73-.15-1.11-.23V14.31Zm-27.36,0H30V3c-.55.13-1.09.24-1.61.4A13.59,13.59,0,0,0,22.71,7a23.4,23.4,0,0,0-4.57,6.68C18,13.85,17.93,14.07,17.82,14.31ZM30,48.65H17.83a2.07,2.07,0,0,0,.08.2c.33.66.63,1.33,1,2a21.43,21.43,0,0,0,4.78,6.09,12.83,12.83,0,0,0,5.11,2.78c.4.11.82.19,1.25.28ZM42.28,5l.17.18A26.63,26.63,0,0,1,44.8,8.05a31.31,31.31,0,0,1,3.32,6,.35.35,0,0,0,.38.25h5.84A28.31,28.31,0,0,0,42.28,5Zm-21.74.08A28,28,0,0,0,8.66,14.28s0,0,0,0h5.87c.06,0,.14-.08.17-.13s.18-.41.27-.62a27.32,27.32,0,0,1,5.45-8.35Zm0,52.76-.16-.18c-.54-.61-1.09-1.2-1.6-1.83a28.54,28.54,0,0,1-4-7,.34.34,0,0,0-.36-.25H8.64a28.64,28.64,0,0,0,6.89,6.56A25.06,25.06,0,0,0,20.57,57.87Z"/><path class="cls-1" d="M59.08,54.54c.23.5.44,1,.66,1.45,1,2.2,2,4.4,3,6.59a1.42,1.42,0,0,1-.73,2l-5.45,2.5a1.41,1.41,0,0,1-1.9-.73Q53.44,63.69,52.21,61c-.37-.81-.73-1.61-1.11-2.43a1.7,1.7,0,0,0-.19.18l-4.08,4.08a1.44,1.44,0,0,1-1.94.15,1.35,1.35,0,0,1-.53-1c0-.1,0-.21,0-.31q0-13.58,0-27.16A1.51,1.51,0,0,1,45,33.13a1.42,1.42,0,0,1,1.78.21l1.66,1.55,8.54,8L64.55,50c.72.68,1.45,1.35,2.17,2a1.4,1.4,0,0,1,.39,1.63,1.45,1.45,0,0,1-1.43.89h-6.6Zm.52,8-.37-.81-3.64-8a1.42,1.42,0,0,1,.64-1.88,1.87,1.87,0,0,1,1-.24h5l-14.94-14V58.36l.05,0a1.39,1.39,0,0,1,.15-.19c1-1,2-2.06,3.08-3.07a1.41,1.41,0,0,1,2.35.4c1.08,2.33,2.14,4.67,3.21,7,.21.45.41.9.62,1.36Z"/></g></svg>