<?xml version="1.0" encoding="utf-8"?>
<!-- Generator: Adobe Illustrator 21.1.0, SVG Export Plug-In . SVG Version: 6.00 Build 0)  -->
<svg version="1.1" id="Layer_1" xmlns="http://www.w3.org/2000/svg" xmlns:xlink="http://www.w3.org/1999/xlink" x="0px" y="0px"
	 viewBox="0 0 100 100" style="enable-background:new 0 0 100 100;" xml:space="preserve">
<title>Self Paid</title>
<g id="Layer_2">
	<g id="Layer_1-2">
		<path d="M63.2,61.6v4.9c0,0.4-0.4,0.8-0.8,0.8s-0.8-0.4-0.8-0.8v-4.9c0-0.4,0.4-0.8,0.8-0.8S63.2,61.2,63.2,61.6z M76.7,38.9
			l-3.2,3.2h1.1c0.4,0,0.8,0.4,0.8,0.8v3.2h0.8c0.4,0,0.8,0.4,0.8,0.8v33.3c0,0.4-0.4,0.8-0.8,0.8H25.8c-0.4,0-0.8-0.4-0.8-0.8V43
			c0-0.4,0.4-0.8,0.8-0.8h4l25.1-25c0.3-0.3,0.8-0.3,1.1,0l20.7,20.7C77,38.1,77,38.6,76.7,38.9z M26.7,43.8v1.6l1.6-1.6H26.7z
			 M75.3,79.5V68.9l-1.9,1.5c-0.1,0.1-0.3,0.2-0.5,0.2H58.3c-0.4,0-0.8-0.4-0.8-0.8V58.4c0-0.4,0.4-0.8,0.8-0.8h14.3l2.7-2v-7.7
			H26.7v31.6H75.3z M63.5,35l-4.7-4.7c-2,1.5-4.8,1.5-6.8,0L36.1,46.2h5.4c0.9-2.5,3.7-3.9,6.2-3c1.4,0.5,2.5,1.6,3,3h8.4l4.5-4.5
			C62,39.8,62,37,63.5,35z M48.4,45.5c-1.3-1.2-3.3-1.2-4.6,0c-0.2,0.2-0.4,0.4-0.5,0.7h5.6C48.8,45.9,48.6,45.7,48.4,45.5
			L48.4,45.5z M75.3,57.6L73.4,59c-0.1,0.1-0.3,0.2-0.5,0.2H59.1v9.7h13.5l2.7-2V57.6z M71.8,43.8l-2.4,2.4h4.3v-2.4H71.8z M75,38.4
			L55.5,18.9L28.1,46.2h5.7l17.6-17.6c0.3-0.3,0.8-0.3,1.1,0c1.6,1.6,4.2,1.6,5.7,0c0.3-0.3,0.8-0.3,1.1,0l5.7,5.7
			c0.3,0.3,0.3,0.8,0,1.1c-1.6,1.6-1.6,4.2,0,5.7c0.3,0.3,0.3,0.8,0,1.1l-3.8,3.9h5.7L75,38.4z M57.2,35.5l-2.9,2.9
			c-0.3,0.3-0.4,0.8-0.1,1.2s0.8,0.4,1.2,0.1l0,0l0.1-0.1l2.9-2.9c0.3-0.3,0.4-0.8,0.1-1.1C58.1,35.2,57.6,35.1,57.2,35.5L57.2,35.5
			L57.2,35.5z"/>
	</g>
</g>
</svg>
