<?xml version="1.0" encoding="UTF-8"?>
<svg width="24px" height="31px" viewBox="0 0 24 31" version="1.1" xmlns="http://www.w3.org/2000/svg" xmlns:xlink="http://www.w3.org/1999/xlink">
    <!-- Generator: Sketch 49.3 (51167) - http://www.bohemiancoding.com/sketch -->
    <title>Stroke 1</title>
    <desc>Created with Sketch.</desc>
    <defs></defs>
    <g id="Page-1" stroke="none" stroke-width="1" fill="none" fill-rule="evenodd">
        <g id="Origa.ai--Website-V1-Copy-6" transform="translate(-256.000000, -4436.000000)" stroke="#99B7CE" stroke-width="2">
            <g id="Group-20" transform="translate(-3.000000, 4259.000000)">
                <g id="Group" transform="translate(245.000000, 166.000000)">
                    <path d="M26.4918782,25.9999974 C28.41931,26.0023168 29.9953509,24.4378743 29.9999897,22.5150829 C30.0046285,20.5864929 28.4425042,19.0058146 26.5220306,19.0000161 C24.5795225,18.9942175 23.0034817,20.5598197 23.0000026,22.498847 C22.9976832,24.4227982 24.5679255,25.997678 26.4918782,25.9999974 Z M25.7681964,41 C25.5361669,40.7886573 25.2555447,40.6085356 25.0757522,40.3599678 C22.3958714,36.6434578 19.7329981,32.9149398 17.0567618,29.1960283 C12.3967335,22.7140507 16.0618287,13.6803498 23.9629821,12.1913442 C29.9678101,11.0589795 35.8183566,15.0732905 36.8327267,21.0389194 C37.3368747,24.0001192 36.6990971,26.7187552 34.9509791,29.1696104 C32.2868909,32.9077349 29.6057954,36.636253 26.9198406,40.3587669 C26.7388332,40.6085356 26.4606407,40.7886573 26.2273963,41 L25.7681964,41 Z" id="Stroke-1"></path>
                </g>
            </g>
        </g>
    </g>
</svg>