<svg xmlns="http://www.w3.org/2000/svg" xmlns:xlink="http://www.w3.org/1999/xlink" viewBox="0 0 101.9 66.93"><defs><style>.cls-1{fill:none;}.cls-2{isolation:isolate;}.cls-3{opacity:0.38;mix-blend-mode:screen;}.cls-4{clip-path:url(#clip-path);}.cls-5{opacity:0.3;}.cls-6{mix-blend-mode:color-dodge;}.cls-7{fill:#99b7ce;}</style><clipPath id="clip-path"><rect class="cls-1" x="-622.47" y="267.22" width="1440" height="1024"/></clipPath></defs><title>Icons</title><g class="cls-2"><g id="Layer_1" data-name="Layer 1"><path class="cls-7" d="M76.29,27.31,62.4,37.76c3.54,4.92,6.95,9.73,10.43,14.48,3.33,4.55,2.34,7.41-3.2,8.58-7.94,1.69-15.92,3.26-23.88,4.87-2.44.49-4.58,0-5.31-2.59-.78-2.72.74-4.35,3.33-5.12,5.36-1.59,10.71-3.21,16.52-4.95l-8.43-9.67c-1-1.16-2.07-2.28-3-3.53-3.72-5.18-3.5-7.62,1.15-11.93,5.39-5,10.84-9.95,16.34-15-2-3.9-4.3-6.71-9.28-6.11-3,.36-6.14-.24-9.22-.27-2.13,0-3.46-.94-3.52-3S45.62.33,47.73.28C53,.17,58.3-.09,63.57,0a6,6,0,0,1,3.82,2C72.17,7.5,77,12.94,81.32,18.75c2,2.66,3,6.1,4.14,9.28.76,2,1.85,3,4.08,2.95,3,0,5.93.24,8.9.32,2.06.06,3.43.88,3.46,3.09s-1.33,3.09-3.38,3.17c-4.5.17-9,.24-13.52.55a3.86,3.86,0,0,1-4.36-2.51C79.37,32.85,77.83,30.22,76.29,27.31Z"/><path class="cls-7" d="M40.58,36.66c1.4,3.19,2.71,6.14,4.21,9.55L31.49,56c-4.59,3.37-9.09,6.88-13.85,10a6.28,6.28,0,0,1-5,.64c-2.64-1.08-2.52-4.31,0-6.5C18.65,55,24.73,50,30.77,44.92Z"/><path class="cls-7" d="M91.25,19a7.62,7.62,0,0,1-8-8,7.64,7.64,0,0,1,8.08-8,7.82,7.82,0,0,1,7.9,7.88A7.72,7.72,0,0,1,91.25,19Z"/><path class="cls-7" d="M21.83,42a11.91,11.91,0,0,1-5.41,2.25,7.9,7.9,0,0,1-2.7,0c-.9-.17-1.8-.37-2.7-.47l-2.71-.34L5.61,43C3.81,42.64,2,42.34.2,42A.26.26,0,0,1,0,41.64a.25.25,0,0,1,.19-.19c1.8-.4,3.61-.7,5.41-1L8.31,40,11,39.7c.9-.11,1.8-.31,2.7-.48a7.9,7.9,0,0,1,2.7,0,11.8,11.8,0,0,1,5.41,2.25.31.31,0,0,1,.06.44Z"/><path class="cls-7" d="M32.65,29.8a12,12,0,0,1-5.41,2.25,8.16,8.16,0,0,1-2.7,0c-.9-.17-1.81-.37-2.71-.47l-2.7-.34-2.71-.41c-1.8-.31-3.6-.61-5.4-1a.26.26,0,0,1-.2-.31.25.25,0,0,1,.2-.19c1.8-.4,3.6-.7,5.4-1l2.71-.42,2.7-.33c.9-.11,1.81-.31,2.71-.48a7.9,7.9,0,0,1,2.7,0,11.74,11.74,0,0,1,5.41,2.25.32.32,0,0,1,.06.44Z"/><path class="cls-7" d="M44.79,19.24a11.92,11.92,0,0,1-5.4,2.25,8,8,0,0,1-2.71,0c-.9-.17-1.8-.37-2.7-.47l-2.71-.34-2.7-.41c-1.8-.31-3.6-.61-5.41-1a.26.26,0,0,1-.19-.31.25.25,0,0,1,.19-.19c1.81-.4,3.61-.7,5.41-1l2.7-.42L34,17c.9-.11,1.8-.31,2.7-.48a8,8,0,0,1,2.71,0,11.81,11.81,0,0,1,5.4,2.25.31.31,0,0,1,.06.44A.17.17,0,0,1,44.79,19.24Z"/></g></g></svg>