<svg xmlns="http://www.w3.org/2000/svg" xmlns:xlink="http://www.w3.org/1999/xlink" viewBox="0 0 121.69 75.29"><defs><style>.cls-1,.cls-8{fill:none;}.cls-2{isolation:isolate;}.cls-3{opacity:0.38;mix-blend-mode:screen;}.cls-4{clip-path:url(#clip-path);}.cls-5{opacity:0.3;}.cls-6{mix-blend-mode:color-dodge;}.cls-7{opacity:0.4;mix-blend-mode:multiply;fill:url(#Degradado_sin_nombre_18);}.cls-8{stroke:#99b7ce;stroke-miterlimit:10;}.cls-9{fill:#99b7ce;}</style><clipPath id="clip-path"><rect class="cls-1" x="-211.71" y="278.87" width="1440" height="1024"/></clipPath><radialGradient id="Degradado_sin_nombre_18" cx="-2017.75" cy="-406.12" r="209" gradientTransform="matrix(-0.13, 0.93, -1.02, -0.12, -593.06, 2094.74)" gradientUnits="userSpaceOnUse"><stop offset="0" stop-color="#133896"/><stop offset="0.08" stop-color="#133896" stop-opacity="0.9"/><stop offset="0.39" stop-color="#133896" stop-opacity="0.51"/><stop offset="0.66" stop-color="#133896" stop-opacity="0.24"/><stop offset="0.87" stop-color="#133896" stop-opacity="0.06"/><stop offset="1" stop-color="#133896" stop-opacity="0"/></radialGradient></defs><title>Icons</title><g class="cls-2"><g id="Layer_1" data-name="Layer 1"><g class="cls-3"><g class="cls-4"><ellipse class="cls-7" cx="90.84" cy="264.3" rx="215.6" ry="196.33"/></g></g></g><g id="text"><g id="I4Yi17.tif"><path class="cls-8" d="M.5,29.16c.36-.79.75-1.56,1.07-2.37q4.8-12.15,9.57-24.31C11.91.53,12.89.1,14.86.84s4,1.49,6.05,2.26A2.13,2.13,0,0,1,22.3,6.28q-5.18,13.31-10.37,26.6c-.65,1.66-1.69,2.11-3.37,1.5-1.95-.71-3.89-1.47-5.86-2.13A3.44,3.44,0,0,1,.5,30.43Z"/><path class="cls-9" d="M67.65,69c1.3-4.69-1.2-9.09-6-9.73,1.82-6.93-4.47-11.94-10-8.62a22.69,22.69,0,0,0-1.4-3.56,6.33,6.33,0,0,0-9.68-1.56c-1.61,1.34-3.16,2.75-4.88,4.25-.58-2.76-1.62-5-4.34-6s-5-.13-7.19,1.83c-1.29-1.34-2.56-2.62-3.81-3.94-1.66-1.76-3.32-3.53-4.92-5.34-.27-.3-.24-.87-.33-1.32,0-.07,0-.15.07-.23Q20.73,20.87,26.29,7c.76.51,1.54,1.08,2.37,1.57A8.36,8.36,0,0,0,36,9.48,75.33,75.33,0,0,0,43.63,6.3c2.44-1.18,4.8-2.54,7.62-2.35a17.52,17.52,0,0,1,3.11.79l0,.35-1.06.73c-5.68,3.86-11.37,7.7-17,11.58a7.31,7.31,0,0,0-3.19,7.79c.62,3.63,3.71,5.61,7.53,4.89A13.2,13.2,0,0,0,44,29q9-4.44,17.84-9a1.38,1.38,0,0,1,1.94.29Q79,36.37,94.4,52.41a1.54,1.54,0,0,1,.37,1.81c-1.12,3.11-5,3.77-7.38,1.22C84.13,52,80.9,48.46,77.66,45c-.52-.55-1-1.09-1.54-1.66a1.24,1.24,0,0,0-2-.19,1.64,1.64,0,0,0-.42,2.31,8.55,8.55,0,0,0,.65.7c2.9,3,5.81,6.09,8.7,9.14a4.87,4.87,0,0,1,1.09,5.4A4.12,4.12,0,0,1,77.13,62Q71.81,56.43,66.5,50.79c-.6-.64-1.15-1.29-2.07-.48a1.69,1.69,0,0,0-.06,2.53q4,4.36,8,8.7A5.14,5.14,0,0,1,73.72,66C73.26,69.18,70.08,70.72,67.65,69Z"/><path class="cls-9" d="M92.2,8.1c1.91,3.55,3.75,7,5.63,10.45q4.73,8.67,9.53,17.3a1.59,1.59,0,0,1,0,1.83c-3,5-7.29,8.74-12.16,12.61a6.3,6.3,0,0,0-.68-1.18Q80.93,34.74,67.33,20.4c-.82-.86-1.65-1.71-2.49-2.56a2.52,2.52,0,0,0-3.15-.51c-6,3-11.95,6-17.95,9a15.37,15.37,0,0,1-3.2,1.24,4,4,0,0,1-4.27-1.05,4.32,4.32,0,0,1-.59-4.6,5.53,5.53,0,0,1,1.57-2.18A152.18,152.18,0,0,1,61.61,4.06C66.88,1.29,71.93,2,76.89,4.85c2.3,1.33,4.57,2.7,6.86,4,2.49,1.44,5,1,7.38-.19C91.44,8.55,91.74,8.36,92.2,8.1Z"/><path class="cls-8" d="M104.73,1a2.59,2.59,0,0,1,2.34,1.53q4.64,8.5,9.29,17,2.16,3.93,4.31,7.89c.92,1.69.63,2.74-1,3.67-1.88,1.05-3.75,2.11-5.64,3.14a2.26,2.26,0,0,1-3.52-1Q103.63,20.63,96.81,8.09a2.25,2.25,0,0,1,.94-3.4q2.94-1.68,5.91-3.3A7.87,7.87,0,0,1,104.73,1Z"/><path class="cls-9" d="M59.73,56.82a4.82,4.82,0,0,1-1.82,3.84q-4.3,3.75-8.57,7.53c-1.89,1.65-3.79,1.9-5.5.69a4.8,4.8,0,0,1-1.55-5.64,6,6,0,0,1,1.47-2.1c2.89-2.6,5.86-5.1,8.78-7.66a4.06,4.06,0,0,1,4.72-.8A4.32,4.32,0,0,1,59.73,56.82Z"/><path class="cls-9" d="M33.4,57.73a5,5,0,0,1,1.8-4L42,47.91c2.06-1.76,4.42-1.77,6,0a4.84,4.84,0,0,1-.07,6.58c-.77.79-1.65,1.48-2.48,2.21-1.61,1.41-3.23,2.81-4.82,4.23a4.06,4.06,0,0,1-4.7.9A4.32,4.32,0,0,1,33.4,57.73Z"/><path class="cls-9" d="M53.25,71a5.16,5.16,0,0,1,1.53-3.82c1.14-1.16,2.3-2.31,3.45-3.45,2-2,4.46-2.22,6.22-.57a5,5,0,0,1,.23,6.71c-.41.48-.89.9-1.34,1.35-.91.88-1.83,1.76-2.73,2.65a4.06,4.06,0,0,1-4.76,1.12A4.26,4.26,0,0,1,53.25,71Z"/><path class="cls-9" d="M23.24,51.83c0-.12,0-.23,0-.35.15-2.53,3.62-5.7,6.12-5.54a4,4,0,0,1,3.71,2.86,4.41,4.41,0,0,1-1,5,13.25,13.25,0,0,1-2.64,2C26.56,57.51,23.19,55.31,23.24,51.83Z"/></g></g></g></svg>