<svg xmlns="http://www.w3.org/2000/svg" viewBox="0 0 63.74 66.25"><defs><style>.cls-1{fill:#fff;}</style></defs><title>Icons</title><g id="text"><g id="_932pBm.tif" data-name="932pBm.tif"><path class="cls-1" d="M7.83,0a8,8,0,0,1,3.46,1.62,6.53,6.53,0,0,1,2.24,6.85,6.45,6.45,0,0,1-5.21,5.07,6.46,6.46,0,0,1-7-2.77A6.41,6.41,0,0,1,.85,3.69,6.6,6.6,0,0,1,5.66.12,2.53,2.53,0,0,0,6,0Z"/><path class="cls-1" d="M57.78,0a8.36,8.36,0,0,1,3.58,1.67A6.84,6.84,0,1,1,50.23,8.42,6.88,6.88,0,0,1,55.55.13C55.69.1,55.83,0,56,0Z"/><path class="cls-1" d="M7.44,53.05c-.22,1.49-.43,3-.65,4.46-.31,2.15-.6,4.31-.92,6.46a2.24,2.24,0,0,1-2.52,2,2.21,2.21,0,0,1-1.9-2.61Q2.59,55.26,3.74,47.2c.18-1.23.37-2.47.53-3.71A.78.78,0,0,0,4,42.9a4.78,4.78,0,0,1-1.62-3.85c0-5.52,0-11,0-16.56a4.43,4.43,0,0,1,3.32-4.66,4.17,4.17,0,0,1,4.15,1c4.52,4.2,9,8.43,13.52,12.63a2.44,2.44,0,0,1,.93,2A2.23,2.23,0,0,1,20.76,35c-.41-.32-.77-.69-1.15-1.05l-7.75-7.24-.45-.41c0,.34,0,.55,0,.77,0,3.9,0,7.8,0,11.71a5,5,0,0,1-1.44,3.94.94.94,0,0,0-.11.75q1.8,7.47,3.63,14.94c.38,1.59.77,3.18,1.15,4.77a2.25,2.25,0,1,1-4.33,1.07L7.61,53.36c0-.1-.06-.2-.08-.3Z"/><path class="cls-1" d="M56.3,52.88C55.77,55,55.29,57,54.81,59c-.44,1.82-.87,3.64-1.33,5.46a2.29,2.29,0,0,1-2.11,1.8,2.1,2.1,0,0,1-2.12-1.39,3.34,3.34,0,0,1,0-1.69c1.56-6.54,3.16-13.06,4.73-19.59a1.12,1.12,0,0,0-.12-.86,4.87,4.87,0,0,1-1.4-3.7c0-4,0-7.89,0-11.84v-.87l-.61.55L43.5,34.64a2.55,2.55,0,0,1-1.82.85,2.14,2.14,0,0,1-2-1.28,2.11,2.11,0,0,1,.3-2.36,10.08,10.08,0,0,1,.87-.86c4.27-4,8.55-8,12.8-12a4.42,4.42,0,0,1,5-1,4.27,4.27,0,0,1,2.78,4.21c0,5.78,0,11.56,0,17.34a4.13,4.13,0,0,1-1.51,3.23.86.86,0,0,0-.32.89q1.43,9.81,2.8,19.64A2.22,2.22,0,0,1,60.4,66a2.27,2.27,0,0,1-2.49-2.09q-.72-5.09-1.45-10.17C56.43,53.48,56.38,53.27,56.3,52.88Z"/><path class="cls-1" d="M27.81,13.44v2.44h2.35V13.44H35a3.31,3.31,0,0,1,3.58,3.48q.06,5.4,0,10.8A3.3,3.3,0,0,1,35,31.2c-2.8,0-5.6,0-8.41,0a1.29,1.29,0,0,1-.76-.4c-.36-.34-.64-.76-1-1.1-1.67-1.59-3.37-3.15-5-4.75a1.49,1.49,0,0,1-.4-.93c0-2.28,0-4.57,0-6.85a3.39,3.39,0,0,1,3.74-3.72Zm-.3,9.67v4.82h3V23.07h2L29,18.86l-3.57,4.25Z"/></g></g></svg>