<svg xmlns="http://www.w3.org/2000/svg" viewBox="0 0 50.93 64.08"><defs><style>.cls-1{fill:#fff;}</style></defs><title>Icons</title><g id="text"><g id="o6vFaY.tif"><path class="cls-1" d="M24.84,28.5c.74,2.51,2.33,3.27,4.87,2.55,2.22-.64,4.45-1.19,6.67-1.79,2-.55,4-1.09,6.06-1.68,3-.89,4.77.66,5.05,3.67a2.94,2.94,0,0,0,1,2.15c2,1.79,2.08,2.39,1.07,5A2.68,2.68,0,0,0,50.06,41c1.13,1.52,1.19,2.5,0,4a2.45,2.45,0,0,0-.39,2.77,3.35,3.35,0,0,1-1.29,3.65,23.32,23.32,0,0,1-3.65,1.5c-1.91.64-3.84,1.3-5.8,1.77-3.25.77-6.45,2-9.89,1.61-1.19-.14-2.36-.43-3.55-.59a3.35,3.35,0,0,0-1.41.08c-1.62.5-2.11.33-2.53-1.21C20.29,50,19.08,45.4,17.84,40.84c-.1-.39-.22-.79-.36-1.18-1-2.55.48-4.57,1.47-6.68A8.25,8.25,0,0,1,24.84,28.5Z"/><path class="cls-1" d="M6.3,64.08c-.4-1.24-.81-2.4-1.14-3.58-.7-2.56-1.35-5.14-2-7.7L.65,43.28A23.57,23.57,0,0,1,0,40.81c0-.3.21-.89.45-1,2.79-.82,5.61-1.57,8.42-2.33a20.72,20.72,0,0,1,2.77-.68c1.9-.24,2-.12,2.45,1.71C15,42.15,16,45.75,17,49.35c.77,2.88,1.58,5.76,2.3,8.66.49,2,.14,2.35-1.86,2.82-1.64.37-3.24,1-4.86,1.43Zm6.11-7.66a2,2,0,0,0,2.11-1.84,2.28,2.28,0,0,0-1.95-2.08,2.14,2.14,0,0,0-2.18,1.92A1.93,1.93,0,0,0,12.41,56.42Z"/><path class="cls-1" d="M45.57,24.73H43.4c.17-1.19.33-2.32.5-3.45.32-2.11.64-4.23,1-6.34a32,32,0,0,1,.63-3.24c.34-1.27.2-1.67-.89-2.33A5.3,5.3,0,0,1,42,4.86c0-.83-.33-1.19-1.07-1.28-1.74-.22-3.49-.44-5.24-.58a1,1,0,0,0-.77.65A5.32,5.32,0,0,1,31.07,8a1,1,0,0,0-.58.73c0,1.34.11,2.69.15,4,.16,4.71.32,9.42.45,14.12,0,.4,0,1-.25,1.16a4.52,4.52,0,0,1-1.44.48,7.12,7.12,0,0,1-.28-1.15q-.45-11.73-.87-23.47c0-.72-.14-1.44-.21-2.15C27.9.2,28.92-.15,30.43.05c2.6.34,5.19.7,7.79,1.06l7.47,1a17.21,17.21,0,0,0,1.75.15c1.25.05,1.74.74,1.53,2-.63,3.71-1.19,7.43-1.83,11.13-.43,2.52-.94,5-1.4,7.53C45.64,23.52,45.63,24.11,45.57,24.73Z"/><path class="cls-1" d="M25.73,3.76c0,.54,0,1,.07,1.42s-.15.8-.73.91c-.27,0-.72.5-.68.7.52,2.73.24,3.53-1.87,4.94,1.32,3.65,2.73,7.26,3.89,10.94.36,1.16.05,2.52.05,3.79l-1.05-.23c-1.63-4.29-3.21-8.46-4.81-12.62-.83-2.15-1.67-4.29-2.54-6.42-.48-1.16-.2-1.7,1-2C21.26,4.77,23.44,4.27,25.73,3.76Z"/><path class="cls-1" d="M37.56,25.64c-2.87-.1-4.82-2-4.68-4.74a4.58,4.58,0,0,1,3-3.62,5.2,5.2,0,0,1,5.21,1.21,3.72,3.72,0,0,1,1.12,3.67,3.85,3.85,0,0,1-2.52,2.93A21.83,21.83,0,0,1,37.56,25.64Z"/><path class="cls-1" d="M12.41,56.42a1.93,1.93,0,0,1-2-2,2.14,2.14,0,0,1,2.18-1.92,2.28,2.28,0,0,1,1.95,2.08A2,2,0,0,1,12.41,56.42Z"/></g></g></svg>