<svg xmlns="http://www.w3.org/2000/svg" viewBox="0 0 110.24 111.06"><defs><style>.cls-1{fill:#99b7ce;}</style></defs><title>Icons</title><g id="text"><g id="MQ2xPk.tif"><path class="cls-1" d="M103.58,54c5.57,5.32,7.85,11.61,6,19S103,84.89,95.87,87.14c.16,1,.37,1.88.46,2.81A14.19,14.19,0,0,1,89,103.64a14.48,14.48,0,0,1-10.39,1.44.75.75,0,0,0-1,.47,10.19,10.19,0,0,1-10.52,5.37c-2.5-.37-4.11-2.12-4.33-5-.16-2-.1-4-.13-6,0-.73,0-1.47,0-2.2v-34q0-24.58,0-49.18,0-4.34.11-8.67A8.73,8.73,0,0,1,63,4a5.1,5.1,0,0,1,4.81-4A10.14,10.14,0,0,1,77.67,5.1a.83.83,0,0,0,.92.47,14.36,14.36,0,0,1,13.69,6,13.48,13.48,0,0,1,2.64,8.52c0,.63.18.86.78,1a19.29,19.29,0,0,1,14.36,16.21,18.85,18.85,0,0,1-6,16.38A6,6,0,0,1,103.58,54Zm-4.7-9.83-.66.56a4.1,4.1,0,0,0-1.36,2.48,3.85,3.85,0,0,0,1.49,3.57c.61.31,1.22.63,1.86.88a.9.9,0,0,0,.79-.08,14.89,14.89,0,0,0,5.56-13.23c-.66-6.68-4.39-11.16-10.65-13.53-1.62-.61-1.61-.59-2.32,1a13.11,13.11,0,0,1-2.65,3.83l-2.41-2.56A10.78,10.78,0,0,0,82.11,9.15a11.11,11.11,0,0,0-9.68,3.22L70.06,9.76a15.89,15.89,0,0,1,4.4-3.11,6.74,6.74,0,0,0-6.48-3A1.52,1.52,0,0,0,66.46,5a27.38,27.38,0,0,0-.29,3.49q0,18.84,0,37.68V91.6c0,4.15,0,8.31,0,12.47a14.21,14.21,0,0,0,.19,2.05,1.33,1.33,0,0,0,1.32,1.26,9.36,9.36,0,0,0,2,0,6.22,6.22,0,0,0,4.76-8.81,14.47,14.47,0,0,0-.8-1.36l2.66-2.26c.23.28.42.5.59.74a9.42,9.42,0,0,1,1.72,5.15c0,.49.15.72.67.83a11.12,11.12,0,0,0,9.48-2.14,10.54,10.54,0,0,0,3.66-11,.84.84,0,0,0-1-.71c-1.37,0-2.74-.16-4.12-.25-.47,0-.62-.23-.49-.72a17.59,17.59,0,0,0,.44-2.16c.08-.54.27-.7.86-.62a15.77,15.77,0,0,0,13.62-4.25,15.54,15.54,0,0,0-1.9-24,16.47,16.47,0,0,0-8.57-2.87c-.49,0-.7-.16-.67-.69a20.18,20.18,0,0,0,0-2.2c0-.58.21-.71.73-.66s1.31.07,2,.1c-.24-4,1.19-7.06,3.82-8.19Z"/><path class="cls-1" d="M0,55.45c0-1.1,0-2.2,0-3.3a4.67,4.67,0,0,1,4.73-4.71c2.14,0,4.27,0,6.41,0,1,0,1.27-.28,1.51-1.24.33-1.36.7-2.71,1.07-4.06.25-.91.12-1.28-.7-1.76L7.56,37.18a4.69,4.69,0,0,1-1.81-6.59c1-1.84,2.09-3.67,3.14-5.5a4.72,4.72,0,0,1,6.79-1.83l5.42,3.15c.77.46,1.16.39,1.81-.27L26,23a1.29,1.29,0,0,0,.16-1.8c-1.05-1.86-2.1-3.71-3.18-5.55A4.73,4.73,0,0,1,24.7,9.09l5.59-3.25a4.66,4.66,0,0,1,6.52,1.64c1,1.75,2,3.54,3.06,5.31.73,1.28,1,1.35,2.37.93,1.14-.35,2.3-.63,3.46-.92s1.39-.56,1.39-1.83c0-2,0-4,0-6.06A4.67,4.67,0,0,1,52,0c.82,0,1.65,0,2.48,0,.46,0,.67.12.65.62q0,1.17,0,2.34c0,.49-.19.64-.65.63-.85,0-1.7,0-2.55,0S50.68,4,50.67,4.82c0,2.06-.06,4.13,0,6.19a4.83,4.83,0,0,1-3.93,5.21c-1.38.35-2.75.74-4.11,1.14a4.71,4.71,0,0,1-5.39-2C36.1,13.43,35,11.5,33.93,9.6c-.57-1-1.06-1.12-2-.56-1.76,1-3.5,2-5.24,3a1.19,1.19,0,0,0-.53,1.84c1.06,1.91,2.16,3.79,3.24,5.69a4.76,4.76,0,0,1-1,6.11c-1,.88-1.88,1.82-2.76,2.79a4.73,4.73,0,0,1-6,1.12c-1.86-1-3.66-2.11-5.48-3.17C13,25.84,12.5,26,11.9,27q-1.5,2.61-3,5.2a1.22,1.22,0,0,0,.54,1.94c1.9,1.11,3.81,2.21,5.7,3.34a4.63,4.63,0,0,1,2.12,5.17q-.64,2.46-1.3,4.92A4.68,4.68,0,0,1,11.49,51c-2.14,0-4.27,0-6.4,0-1.15,0-1.53.37-1.53,1.53q0,3.06,0,6.12c0,1,.38,1.32,1.35,1.33C7,60,9,60,11.11,60a4.75,4.75,0,0,1,5,4.14c.18.87.42,1.74.67,2.6a6.19,6.19,0,0,1-3.1,7.64c-1.08.62-2.15,1.24-3.21,1.89a2.49,2.49,0,0,0-1,3.56c.8,1.47,1.65,2.91,2.48,4.36a1.19,1.19,0,0,0,1.85.49c1.89-1.09,3.77-2.2,5.67-3.27a4.71,4.71,0,0,1,5.9.93q1.49,1.57,3.05,3.08a4.71,4.71,0,0,1,.91,6c-1.06,1.9-2.16,3.79-3.23,5.69A1.18,1.18,0,0,0,26.68,99l5.11,3c1.06.61,1.57.47,2.19-.61,1.06-1.82,2.07-3.68,3.17-5.48a4.66,4.66,0,0,1,5.7-2.11c1.28.39,2.56.74,3.85,1.05a4.75,4.75,0,0,1,4,4.91c0,2.07,0,4.13,0,6.2,0,1.18.36,1.56,1.56,1.57.78,0,1.56,0,2.34,0,.4,0,.58.16.57.58,0,.81,0,1.61,0,2.41,0,.2-.21.54-.32.54-1.53,0-3.08.27-4.58-.28a4.53,4.53,0,0,1-3.08-4.29c0-2.16,0-4.32,0-6.48,0-1.16-.25-1.44-1.35-1.72-1.29-.32-2.57-.68-3.85-1-1-.27-1.3-.16-1.81.71C39,99.76,38,101.65,36.84,103.5a4.64,4.64,0,0,1-6.5,1.7c-1.9-1.08-3.78-2.17-5.66-3.28A4.7,4.7,0,0,1,23,95.34l3.15-5.5c.49-.86.41-1.28-.32-2-1-1-2-2-3-3a1.22,1.22,0,0,0-1.77-.27c-1.79,1-3.59,2-5.36,3.12A4.73,4.73,0,0,1,8.91,86q-1.25-2.14-2.46-4.3a6.11,6.11,0,0,1,2.14-8.4c1.07-.67,2.18-1.27,3.27-1.91,1.64-1,2-1.9,1.5-3.74-.28-1-.53-2-.75-2.93-.19-.79-.47-1.09-1.3-1.11s-1.61,0-2.41,0c-1.42,0-2.85,0-4.27,0A4.62,4.62,0,0,1,0,58.9C0,57.75,0,56.6,0,55.45Z"/><path class="cls-1" d="M23.82,54.37c.53-11.45,6.09-21,17.38-27a28.84,28.84,0,0,1,13.18-3.29c.57,0,.77.15.74.73a15.73,15.73,0,0,0,0,2.06c0,.56-.14.76-.72.78a26.74,26.74,0,0,0-6.65,1A27.31,27.31,0,0,0,33.65,37.9a26.51,26.51,0,0,0-6,14.06C26.57,62.27,30,70.84,38,77.42a26.31,26.31,0,0,0,16.38,6c.56,0,.72.2.69.72,0,.74,0,1.47,0,2.21,0,.51-.15.68-.67.66A31.13,31.13,0,0,1,31.59,76.2C26.48,70.29,24,63.38,23.82,54.37Z"/><path class="cls-1" d="M88.54,42a12.12,12.12,0,0,1-6.15-.52,11.9,11.9,0,0,1-8-13.77A4.06,4.06,0,0,0,71,23L70.71,23c0-1-.1-2.06-.14-3.09,0-.48.32-.41.62-.4a6.65,6.65,0,0,1,4.86,2.38c.22.26.43.53.69.86a15.19,15.19,0,0,1,1.8-1.79c1.12-.8,2.33-1.46,3.5-2.16.42-.26.71-.18.87.34.22.77.48,1.53.76,2.28.14.4,0,.56-.35.72a8.59,8.59,0,0,0-5.49,7.17,7.85,7.85,0,0,0,3,7.33,8.51,8.51,0,0,0,6.33,2c.71-.06,1,.14,1,.85S88.39,41.12,88.54,42Z"/><path class="cls-1" d="M84,63.77a10.55,10.55,0,0,1-1-4.58c0-.61.18-.84.79-.74.77.12,1.55.21,2.33.27.58,0,.46.45.47.8A5.67,5.67,0,0,0,90,64.86a5.73,5.73,0,0,0,5.06-.09l.61-.29,1.86,3a8.52,8.52,0,0,1-4,1.45,9.57,9.57,0,0,1-6.6-1.63A1.7,1.7,0,0,0,85.83,67a5.89,5.89,0,0,0-3.92,2.31c-.17.22-.34.43-.56.69l-3-1.76A10,10,0,0,1,84,63.77Z"/><path class="cls-1" d="M74.93,61.85l-2.49,2.29a24.39,24.39,0,0,1-1.58-2.37C69,58.2,68.78,54.58,71,51.09c2-3.13,5-4.33,8.6-4.14,2,.1,2,.19,1.5,2.06-.12.51-.12,1.21-.45,1.47s-1,0-1.5,0a5.8,5.8,0,0,0-5.85,7.72A29.83,29.83,0,0,0,74.93,61.85Z"/><path class="cls-1" d="M84.88,78.38a5.6,5.6,0,0,0-5.45,8.25L78,87.47l-1.54.84A6.67,6.67,0,0,1,75.25,85a9,9,0,0,1,9.09-10.18c.92,0,1,.1.88,1S85,77.51,84.88,78.38Z"/></g></g></svg>