<svg id="Layer_1" data-name="Layer 1" xmlns="http://www.w3.org/2000/svg" viewBox="0 0 79.6 78.07"><defs><style>.cls-1{fill:#fff;}</style></defs><title>Icons</title><g id="_2clSGa.tif" data-name="2clSGa.tif"><path class="cls-1" d="M79.6,39.65v9.48l-.15.67a6.9,6.9,0,0,1-6,5.56,37.86,37.86,0,0,1-4.88.1,1.42,1.42,0,0,0-1.6,1.1C63.2,65.69,57,72.47,47.79,76.37a19,19,0,0,1-12,1.23,31.21,31.21,0,0,1-15.42-9.1,35.35,35.35,0,0,1-7.89-12.42.8.8,0,0,0-.91-.6c-1.4,0-2.8,0-4.2,0C3.4,55.44.44,52.92.14,49a76.41,76.41,0,0,1,0-9.08,6.3,6.3,0,0,1,3-5,1.32,1.32,0,0,0,.66-1.25A43.15,43.15,0,0,1,5.34,22.43C8,13.25,13.63,6.71,22.49,3A39.27,39.27,0,0,1,34.15.29C41.09-.33,48,0,54.65,2.12,64,5.17,70.52,11.28,73.76,20.69a41.77,41.77,0,0,1,2.1,12.89,1.59,1.59,0,0,0,.67,1.32,11.46,11.46,0,0,1,2.16,2.4A11.24,11.24,0,0,1,79.6,39.65ZM28.68,22.57c-.07.6-.14.95-.15,1.31a17,17,0,0,1-1.62,6.58c-2.31,4.83-5.86,8.22-11.24,9.37-.48.11-.6.33-.62.79A33.71,33.71,0,0,0,16,50.78c.28,1.11.35,2.35,1.33,3.16a29.75,29.75,0,0,0,3.23,2.51c3.63,2.21,7.72,2.88,11.87,3.21a.93.93,0,0,0,.7-.31c2.41-3.06,8.14-3.3,11.11-.9,2.32,1.88,2.36,4.51,0,6.4a8,8,0,0,1-6.36,1.59,6.84,6.84,0,0,1-5-2.76,1,1,0,0,0-.66-.27,40.1,40.1,0,0,1-8.69-1.54c-1-.32-2-.7-3-1.08,2.75,4.6,8.81,9.36,14.22,11.35a14.25,14.25,0,0,0,10.74-.2A30.59,30.59,0,0,0,62.21,55.32c2.4-5.45,2.77-11.2,2.26-17a1.16,1.16,0,0,0-.42-.76,27.07,27.07,0,0,0-2.89-1.95,33.24,33.24,0,0,0-10.75-3.35c-.57-.09-1.15-.14-1.88-.22a10.4,10.4,0,0,1,2,4,26.38,26.38,0,0,0-2.4-1.17q-2.94-1.08-5.94-2c-4.77-1.52-8.93-3.95-11.95-8.06Zm43,11c0-.64-.08-1.21-.11-1.77a34.29,34.29,0,0,0-3-12.68A23.46,23.46,0,0,0,55.74,7,36.24,36.24,0,0,0,45,4.49C37.81,3.87,30.76,4.27,24,7A23.29,23.29,0,0,0,12,17.32,31.51,31.51,0,0,0,8.29,29.55c-.14,1.33-.2,2.66-.3,4h2.74a39.51,39.51,0,0,1,3-10.36,24.5,24.5,0,0,1,16.15-14,37.81,37.81,0,0,1,15.08-1,27,27,0,0,1,12.48,4.55c5.14,3.6,8.24,8.63,10,14.52.63,2.07,1,4.19,1.58,6.33Z"/><path class="cls-1" d="M29.5,47a4.07,4.07,0,1,1,4.08-4A4.09,4.09,0,0,1,29.5,47Z"/><path class="cls-1" d="M50.17,47a4.07,4.07,0,1,1,4.08-4A4.07,4.07,0,0,1,50.17,47Z"/></g></svg>